<svg width="150" height="150" viewBox="0 0 150 150" fill="none" xmlns="http://www.w3.org/2000/svg" style="width: 150px; height: 150px;"><style>
     .meditate1 {animation:meditate1 4s infinite;}
     @keyframes meditate1 {
         0%{transform: translate3d(0, -7px, 0);}
         50%{transform: translate3d(0, 7px, 0);}
         100%{transform: translate3d(0, -7px, 0);}
     }
     @media (prefers-reduced-motion: reduce) {
         .meditate1 {
             animation: none;
         }
     }
    </style><g class="meditate1" style="animation-duration: 4s;"><path class="fillCls4" d="M32.0663 139.492C31.2285 137.769 31.6711 135.588 32.8725 134.102C34.0739 132.6 35.9076 131.73 37.7887 131.319C39.2431 131.003 40.7764 130.956 42.1675 130.418C43.8115 129.802 45.1552 128.585 46.7518 127.889C48.1113 127.304 49.6763 127.114 51.0674 127.605C53.1856 128.363 54.4028 130.75 53.5492 132.884C52.8536 134.639 51.0673 134.939 49.3917 135.24C47.969 135.493 31.8292 139.002 32.0663 139.492Z" fill="#FDC485" stroke-width="2px"></path><path class="fillCls6" d="M47.4629 126.134C45.9453 126.213 44.6807 127.241 43.337 127.936C40.1438 129.58 36.3025 129.407 32.9512 130.719C28.446 132.473 25.2212 137.089 25.0473 141.911C25.0315 142.337 25.4583 142.622 25.8535 142.448C30.8172 140.251 35.9705 138.449 41.2029 137.026C39.7644 137.026 38.073 136.884 37.4565 135.461C37.1245 134.686 37.2668 133.801 37.7568 133.121C38.7527 131.699 40.4284 131.319 42.0091 131.019C45.0917 130.434 48.3165 129.897 50.8615 128C51.2725 127.683 51.4939 127.146 51.3516 126.656C51.1935 126.039 50.6086 125.913 50.087 125.85C47.9845 125.613 45.803 126.071 43.9693 127.114" fill="#F26C5D" stroke-width="2px"></path><path class="fillCls1" d="M100.149 127.557C100.149 127.557 62.5108 108.192 45.5173 106.754C28.5239 105.315 27.607 114.105 28.3974 117.361C29.1878 120.617 41.3757 135.303 100.007 134.671C100.007 134.671 96.4819 131.983 100.149 127.557Z" fill="#0A2A3C" stroke-width="2px"></path><path class="fillCls1" d="M76.5498 117.472C76.5498 117.472 105.541 101.996 120.401 110.153L121.808 112.524C122.314 113.393 122.171 114.484 121.46 115.195C117.603 118.973 105.083 130.165 91.7096 130.434C75.6172 130.75 63.4609 124.743 63.4609 124.743L76.5498 117.472Z" fill="#0A2A3C" stroke-width="2px"></path><path class="fillCls5" d="M28.525 105.315C27.624 104.841 26.6281 104.541 25.7428 104.035C25.5531 103.924 25.3476 103.798 25.2054 103.624C25.0473 103.434 24.9682 103.181 24.8576 102.96C24.083 101.079 22.36 99.6403 20.3682 99.1976C20.2101 99.166 20.052 99.1344 19.9097 99.1976C19.5303 99.3715 19.6568 99.9248 19.8465 100.304C21.1269 102.786 22.6603 105.157 24.5731 107.181C25.3318 107.987 26.2013 108.761 27.2604 109.093C28.3353 109.425 29.7422 109.172 30.3429 108.145C31.0859 106.88 29.5209 105.821 28.525 105.315Z" fill="#FBB86E" stroke-width="2px"></path><path class="fillCls4" d="M33.7262 109.947C31.5605 111.733 28.3989 112.192 25.8064 111.117C24.8421 110.706 23.9727 110.121 23.0242 109.694C22.0758 109.267 20.985 109.014 19.9891 109.346C18.8351 107.75 17.6812 106.153 16.543 104.557C16.464 104.43 16.3691 104.304 16.3533 104.161C16.3375 103.988 16.4323 103.814 16.5114 103.656C17.4915 101.933 18.4558 100.209 19.4358 98.5022C20.163 98.85 20.3527 99.7984 20.3369 100.589C20.3211 101.711 20.0998 102.834 19.673 103.861C19.5939 104.067 19.4991 104.272 19.5307 104.478C19.5465 104.636 19.6413 104.778 19.7362 104.92C20.0998 105.489 20.4633 106.058 20.8269 106.627C20.6372 104.525 20.8427 102.454 21.1905 100.352C21.8861 100.526 22.4868 101.063 22.7081 101.743C23.2297 101.585 23.7672 101.996 24.0043 102.47C24.2414 102.944 24.3047 103.513 24.526 104.003C24.5576 104.082 24.605 104.161 24.6682 104.225C24.7631 104.304 24.8738 104.319 24.9844 104.351C25.7274 104.588 26.1068 105.379 26.3913 106.106C26.6442 106.738 26.8972 107.355 27.1501 107.987C27.6243 107.402 28.0511 107.023 28.7309 106.675C29.4106 106.327 30.1852 106.169 30.9282 106.327C31.7027 106.485 32.3825 106.975 32.8409 107.608C33.2993 108.24 33.5997 109.157 33.7262 109.947Z" fill="#FDC485" stroke-width="2px"></path><path class="fillCls4" d="M36.0017 104.082C36.2546 104.003 36.5391 103.924 36.7921 104.003C37.0134 104.067 37.1873 104.241 37.3453 104.399C38.5151 105.647 39.2739 107.276 39.4794 108.983C36.9818 110.421 33.8992 110.295 31.0854 109.71C30.6586 109.615 30.216 109.52 29.8366 109.267C27.2125 107.592 34.737 104.478 36.0017 104.082Z" fill="#FDC485" stroke-width="2px"></path><path class="fillCls3" d="M132.509 54.7303C130.881 49.814 127.624 45.4511 123.325 42.574C115.816 37.5471 105.952 37.3416 98.1901 32.7415C95.5502 31.1766 93.021 29.0741 91.2031 26.5765C87.9941 22.1503 87.6621 16.3488 84.6112 11.8594C83.0462 9.55141 80.596 7.67027 77.798 7.51219C75.9011 7.40154 74.0357 8.08128 72.1388 8.04966C71.0322 8.03385 69.9415 7.76512 68.8349 7.82835C66.4005 7.93901 64.2507 9.59883 62.8912 11.6222C61.0891 14.3412 60.6781 17.2498 60.109 20.3324C59.9983 20.9173 59.9035 21.518 59.8245 22.1029C59.0183 24.8692 58.7969 27.8253 59.0657 30.7023C59.4925 35.2866 60.7255 39.4125 63.239 43.238C65.4679 46.6367 68.4239 49.5453 71.8542 51.7268C72.8659 53.7028 73.7196 55.663 76.1224 56.6114C76.7231 56.8485 77.4186 56.975 77.9719 56.643C79.5052 55.7262 78.4777 52.3907 80.185 52.1378C81.0386 53.6712 82.2558 54.9832 83.7734 55.8685C86.3975 57.4176 89.6065 57.7496 92.1832 59.3778C95.7399 61.6225 97.4788 66.0329 97.5894 70.2536C97.6369 71.7554 97.4946 73.2887 97.8424 74.7589C98.3957 77.0984 100.135 78.9796 102.095 80.3865C109.208 85.4766 119.8 84.5597 126.376 78.7741C132.967 72.9726 135.26 63.0452 132.509 54.7303ZM64.5352 43.0641C64.4562 42.9218 64.3771 42.7637 64.3139 42.6215L64.3297 42.6373C66.2741 45.0875 68.7559 47.0635 70.6212 49.5769C71.1271 50.2567 71.5223 50.9838 71.8859 51.711C68.7875 49.6402 66.2266 46.3047 64.5352 43.0641ZM81.829 34.6069C81.8448 35.5712 81.9871 36.7251 81.75 37.6578C81.3073 39.3809 79.5843 39.9974 78.7623 41.5781C77.5293 43.9019 78.5252 47.1741 79.2365 49.6876L67.8548 23.7785C69.2776 25.2486 71.1113 26.3236 73.0873 26.8452C72.3127 25.8493 71.9333 24.5531 72.0281 23.2884C72.6762 25.2328 74.1938 26.8768 76.0908 27.6514C75.9801 27.1614 75.8852 26.6871 75.7746 26.1971C78.0351 26.3868 80.3115 26.5923 82.572 26.782C82.5878 29.3745 81.7974 32.0302 81.829 34.6069ZM131.624 66.3175C131.482 67.3608 131.244 68.4041 130.928 69.4158C130.596 70.4275 130.201 71.4076 129.711 72.3403C129.221 73.2729 128.652 74.174 128.02 75.0118C126.739 76.6874 125.19 78.1575 123.419 79.2641C125.032 77.9362 126.455 76.4187 127.624 74.7272C128.209 73.8736 128.731 73.0042 129.189 72.0715C129.648 71.1547 130.043 70.2062 130.343 69.2261C130.66 68.246 130.897 67.2501 131.055 66.2384C131.229 65.2267 131.308 64.1992 131.323 63.1717C131.355 61.1167 131.086 59.0458 130.533 57.0382C131.323 58.9668 131.75 61.0692 131.813 63.1717C131.813 64.215 131.75 65.2741 131.624 66.3175Z" fill="#4F085A" stroke-width="2px"></path><path class="fillCls5" d="M89.5915 54.5248L82.7467 51.6635C81.0868 50.968 79.9961 49.3398 79.9961 47.5377V39.4599L74.7795 37.6894V37.6736L74.7479 37.6894L74.7163 37.6736V37.6894L69.4997 39.4599V47.5377C69.4997 49.3398 68.4089 50.968 66.7491 51.6635L59.9043 54.5248L68.235 61.1641L74.7479 60.6424L81.2607 61.1641L89.5915 54.5248Z" fill="#FBB86E" stroke-width="2px"></path><path class="fillCls4" d="M76.1224 18.1035V15.6375L74.7471 16.8705L73.3719 15.6375V18.1035C72.5815 18.5619 71.7595 19.0045 70.9849 19.5104C70.0048 20.1269 69.3883 21.2651 68.013 20.6802C67.681 20.5379 67.3807 20.3008 67.0487 20.2059C66.7009 20.1111 66.2425 20.2059 66.116 20.5379C66.2741 20.4272 66.448 20.3008 66.6061 20.1901C66.859 20.9489 66.448 21.7551 66.1002 22.4664C66.0528 22.5613 66.0054 22.6561 65.958 22.751C63.6816 27.7305 64.6459 32.6151 66.8274 37.3575C67.9972 39.9025 70.1471 43.7754 73.3719 43.7754H76.1066C77.5767 43.7754 78.873 42.8428 79.9163 41.673C81.7658 39.618 82.7459 36.9306 82.7459 34.1643V24.063L76.1224 18.1035Z" fill="#FDC485" stroke-width="2px"></path><path class="fillCls1" d="M77.0645 38.4502L77.3541 38.5904C77.3541 38.5904 76.8022 39.5221 75.7123 39.6036C74.7072 39.6786 73.1387 39.4091 73.1387 39.4091L73.2202 39.1015C73.2202 39.1015 74.739 39.3582 75.7123 39.2869C76.4853 39.2304 77.0645 38.4502 77.0645 38.4502Z" fill="#0A2A3C" stroke-width="2px"></path><path class="fillCls3" d="M70.1313 12.4127C68.4873 12.3653 66.9855 13.4877 66.0845 14.863C65.0253 16.4596 64.6143 18.4672 64.9463 20.3641C65.2783 22.2452 66.3532 23.9999 67.8866 25.1381C67.6494 24.2844 67.5546 23.3992 67.602 22.514C68.6295 24.9168 70.5107 26.1656 73.0557 26.8453C72.2812 25.8494 71.9018 24.5532 71.9966 23.2886C72.5973 25.0907 74.1149 27.1141 76.0434 27.5883C75.7115 26.6556 75.664 25.5807 75.7273 24.6006C77.2132 26.1814 79.2524 27.2089 81.4023 27.4776C82.2875 27.5883 83.236 27.5409 83.979 27.0666C84.9274 26.4659 85.3385 25.2487 85.291 24.1264C85.2436 23.004 84.8168 21.9449 84.4058 20.9016C83.5838 18.8782 82.7618 16.8548 81.9556 14.8313C81.3707 13.3928 80.0744 12.5392 78.6992 11.8595C77.3081 11.1797 75.7589 10.8952 74.2097 10.832C73.119 10.7845 72.0124 10.832 70.9691 11.1955C69.9416 11.5591 68.9931 12.2389 68.5031 13.2189C68.5505 12.8712 70.0839 12.7605 70.1313 12.4127Z" fill="#4F085A" stroke-width="2px"></path><path class="fillCls2" d="M61.7851 53.75H60.5995C54.9087 53.75 50.0082 57.7336 48.8227 63.2979L41.3613 98.7866L33.9316 104.636C33.9316 104.636 38.5159 106.532 38.1998 109.536C38.1998 109.536 53.2172 110.168 53.8496 99.2608C54.4819 88.3534 55.1142 86.6145 55.1142 86.6145L59.9198 98.3124L54.6985 108.574L75.0637 118.072L95.3535 110.031L89.5911 98.6285L94.4758 87.4049C94.4758 87.4049 96.5308 99.577 98.902 104.003C101.273 108.429 104.593 109.378 108.861 109.22C108.861 109.22 109.177 103.529 113.445 104.477C113.445 104.477 109.335 102.264 109.019 97.9962C108.703 93.7281 103.96 73.8102 103.96 73.8102L100.767 62.1598C98.9968 57.1645 94.1754 53.9081 88.8798 54.1452H88.7217C88.7059 54.161 73.5145 64.0409 61.7851 53.75Z" fill="#36C2DB" stroke-width="2px"></path><path class="fillCls6" d="M82.6523 34.1009V23.478C85.5768 23.478 87.9638 25.8492 87.9638 28.7895C87.948 31.7139 85.5768 34.1009 82.6523 34.1009Z" fill="#F26C5D" stroke-width="2px"></path><path class="fillCls6" d="M65.7216 23.478V34.1009C62.7971 34.1009 60.4102 31.7297 60.4102 28.7895C60.4102 25.8492 62.7971 23.478 65.7216 23.478Z" fill="#F26C5D" stroke-width="2px"></path><path class="fillCls6" d="M83.2512 23.9291C83.2512 24.9774 84.6443 24.9641 84.6443 23.9291C85.1354 17.6921 80.4774 11.8797 73.6168 11.8665C66.7561 11.8532 62.5497 18.3556 63.0801 23.9291C63.0799 24.9376 64.5397 24.8049 64.5397 23.9291C64.2349 19.2314 67.1809 13.2863 73.7098 13.2996C80.2387 13.3129 83.2512 18.3266 83.2512 23.9291Z" fill="#F26C5D" stroke-width="2px"></path><path class="fillCls1" d="M100.151 127.557C100.151 127.557 71.2861 112.713 52.7119 108.05C52.5854 108.967 52.3957 109.884 52.2218 110.785C51.9531 112.334 51.6527 113.867 51.3682 115.417C50.8149 118.436 50.2458 121.439 49.74 124.459C49.4554 126.166 49.1867 127.857 48.918 129.565C59.7622 132.615 75.981 134.923 100.025 134.67C100.009 134.67 96.4838 131.983 100.151 127.557Z" fill="#0A2A3C" stroke-width="2px"></path><path class="fillCls1" d="M51.6357 135.335C51.778 133.011 50.9402 130.64 49.3594 128.932C58.8599 125.344 69.2773 124.285 79.2995 125.802C81.0858 126.071 84.4528 126.15 85.8123 127.462C86.9031 128.521 86.7292 130.039 85.4962 130.798C83.6308 131.952 79.8844 131.999 77.7187 132.394C75.063 132.884 72.3914 133.311 69.7041 133.675C68.1865 133.88 51.6357 135.35 51.6357 135.335Z" fill="#0A2A3C" stroke-width="2px"></path><path class="fillCls7" d="M78.3164 117.525L78.4674 117.177C78.4674 117.177 89.3801 121.972 96.2157 125.371C97.263 125.892 98.8916 126.717 98.8916 126.717L98.6497 126.959C98.6497 126.959 97.0577 126.162 96.0343 125.659C89.2031 122.297 78.3164 117.525 78.3164 117.525Z" fill="#FFFFFF" stroke-width="2px"></path><path class="fillCls7" d="M70.617 133.24L70.5441 133.568C70.5441 133.568 60.2184 132.414 53.7489 130.919C50.7922 130.236 46.2383 128.926 46.2383 128.926L46.3599 128.622C46.3599 128.622 50.8399 129.916 53.7489 130.591C60.2444 132.098 70.617 133.24 70.617 133.24Z" fill="#FFFFFF" stroke-width="2px"></path><path class="fillCls4" d="M105.653 125.961C107.455 125.755 109.178 126.609 110.79 127.431C112.15 128.111 113.509 128.759 114.884 129.391C116.402 130.087 117.967 130.798 119.137 131.999C120.307 133.201 120.971 135.034 120.307 136.584C119.611 138.228 117.619 138.986 115.833 138.876C114.047 138.765 112.387 137.959 110.743 137.279C107.55 135.967 104.183 135.05 100.768 134.56C99.5983 134.386 98.3811 134.26 97.4326 133.548C96.9268 133.185 96.5474 132.663 96.2786 132.094C95.8518 131.161 95.7728 130.071 96.1522 129.122C96.4841 128.3 97.2113 127.589 98.0649 127.368C98.8869 127.146 99.456 127.589 100.231 127.62C102.128 127.668 103.787 126.182 105.653 125.961Z" fill="#FDC485" stroke-width="2px"></path><path class="fillCls6" d="M113.714 132.205C114.868 133.058 118.219 135.666 116.591 137.279C116.212 137.658 115.69 137.848 115.168 137.927C113.904 138.132 112.623 137.816 111.39 137.5C116.338 139.492 122.155 141.832 127.514 142.1C127.736 142.116 127.957 142.116 128.162 142.021C128.89 141.705 128.7 140.63 128.352 139.935C127.261 137.706 125.712 135.714 123.831 134.101C122.756 133.185 121.571 132.378 120.337 131.683C117.524 130.07 114.41 129.233 111.596 127.652C109.177 126.292 106.806 124.759 103.945 125.834C103.312 126.071 102.664 126.482 102.475 127.13C103.091 127.035 103.723 127.209 104.308 127.399C106.822 128.189 109.24 129.312 111.485 130.719C112.244 131.193 112.987 131.683 113.714 132.205Z" fill="#F26C5D" stroke-width="2px"></path><path class="fillCls5" d="M119.248 105.442C120.118 104.968 121.082 104.667 121.92 104.146C122.109 104.035 122.299 103.909 122.426 103.735C122.584 103.545 122.663 103.292 122.742 103.071C123.469 101.19 125.129 99.7352 127.042 99.2926C127.184 99.261 127.342 99.2294 127.484 99.2926C127.848 99.4665 127.737 100.02 127.563 100.399C126.346 102.881 124.892 105.252 123.074 107.276C122.347 108.082 121.525 108.872 120.497 109.188C119.454 109.52 118.094 109.267 117.509 108.24C116.798 107.007 118.3 105.948 119.248 105.442Z" fill="#FBB86E" stroke-width="2px"></path><path class="fillCls4" d="M114.266 110.073C116.384 111.86 119.466 112.302 121.948 111.212C122.881 110.801 123.703 110.216 124.636 109.789C125.552 109.362 126.612 109.109 127.576 109.441C128.667 107.845 129.773 106.248 130.864 104.651C130.943 104.525 131.038 104.398 131.054 104.256C131.069 104.082 130.975 103.908 130.896 103.75C129.931 102.027 128.967 100.32 128.003 98.5969C127.307 98.9605 127.133 99.8932 127.149 100.684C127.181 101.806 127.402 102.912 127.845 103.956C127.924 104.161 128.018 104.367 127.987 104.572C127.971 104.73 127.876 104.873 127.797 105.015C127.449 105.584 127.102 106.153 126.77 106.722C126.928 104.62 126.706 102.549 126.343 100.462C125.663 100.636 125.094 101.189 124.889 101.869C124.383 101.711 123.877 102.122 123.64 102.596C123.403 103.071 123.355 103.64 123.15 104.13C123.118 104.209 123.071 104.288 123.007 104.351C122.928 104.43 122.802 104.446 122.691 104.477C121.98 104.715 121.616 105.521 121.348 106.232C121.11 106.864 120.873 107.481 120.636 108.113C120.162 107.528 119.751 107.149 119.087 106.817C118.423 106.469 117.664 106.311 116.953 106.469C116.21 106.627 115.562 107.117 115.103 107.75C114.661 108.382 114.376 109.299 114.266 110.073Z" fill="#FDC485" stroke-width="2px"></path><path class="fillCls4" d="M112.007 104.225C111.754 104.146 111.485 104.067 111.232 104.146C111.027 104.209 110.853 104.383 110.711 104.541C109.588 105.79 108.877 107.434 108.703 109.125C111.138 110.548 114.125 110.421 116.844 109.837C117.271 109.742 117.698 109.647 118.046 109.394C120.559 107.703 113.224 104.62 112.007 104.225Z" fill="#FDC485" stroke-width="2px"></path></g></svg>