<svg xmlns="http://www.w3.org/2000/svg"
     xmlns:xlink="http://www.w3.org/1999/xlink"
     version="1.1"
     width=""
     height="1469.231014171653"
     viewBox="0 0 3171.4285714285716 1469.231014171653">

  <g transform="scale(8.571428571428571) translate(10, 10)">
    <defs id="SvgjsDefs2554"></defs>
    <g id="SvgjsG2555"
       featureKey="monogramFeature-0"
       transform="matrix(2.604166666666667,0,0,2.604166666666667,113.1875,-46.87500000000001)"
       fill="#c84771">
      <path
            d="M24 18 c11.58 0 21 9.4206 21 21 s-9.42 21 -21 21 s-21 -9.4206 -21 -21 s9.42 -21 21 -21 z M8.9028 51.8892 l0 -25.779 c-2.9686 3.4726 -4.7676 7.9734 -4.7676 12.889 s1.7984 9.4164 4.7676 12.889 z M24 58.8649 c10.953 0 19.865 -8.9118 19.865 -19.865 s-8.9118 -19.865 -19.865 -19.865 c-5.4385 0 -10.371 2.198 -13.962 5.7505 l0 28.229 c3.591 3.5525 8.5242 5.7505 13.962 5.7505 z">
      </path>
    </g>
    <g id="SvgjsG2556"
       featureKey="nameFeature-0"
       transform="matrix(0.774370528546642,0,0,0.774370528546642,-2.0133629311228987,119.97084270929486)"
       fill="#111111">
      <path
            d="M16.9 40.52 c-7.92 0 -14.3 -6.4 -14.3 -14.4 c0 -8.04 6.38 -14.44 14.3 -14.44 c7.88 0 14.26 6.4 14.26 14.44 c0 8 -6.38 14.4 -14.26 14.4 z M16.9 38.22 c6.62 0 11.86 -5.36 11.86 -12.1 c0 -6.78 -5.24 -12.14 -11.86 -12.14 c-6.66 0 -11.9 5.36 -11.9 12.14 c0 6.74 5.24 12.1 11.9 12.1 z M74.47 12 c0.44 0 0.58 0.28 0.48 0.68 l-7.14 26.84 c-0.08 0.32 -0.4 0.48 -0.72 0.48 l-1.92 0 c-0.32 0 -0.64 -0.16 -0.74 -0.48 l-6.98 -23.1 l-6.98 23.1 c-0.1 0.32 -0.4 0.48 -0.72 0.48 l-1.94 0 c-0.32 0 -0.64 -0.16 -0.72 -0.48 l-7.06 -26.84 c-0.12 -0.42 0.04 -0.68 0.48 -0.68 l1.26 0 c0.32 0 0.6 0.12 0.68 0.48 l6.28 24.6 l7.44 -24.6 c0.06 -0.22 0.18 -0.34 0.32 -0.42 c0.08 -0.04 0.2 -0.06 0.32 -0.06 l1.3 0 c0.12 0 0.24 0.02 0.32 0.06 c0.14 0.08 0.26 0.2 0.32 0.42 l7.44 24.6 l6.34 -24.6 c0.1 -0.36 0.36 -0.48 0.68 -0.48 l1.26 0 z M104.18 12 c0.36 0 0.6 0.24 0.6 0.6 l0 26.8 c0 0.3 -0.18 0.52 -0.44 0.58 l0 0.02 l-2.1 0 c-0.32 0 -0.56 -0.12 -0.72 -0.4 l-14.4 -24.18 l0 23.98 c0 0.36 -0.24 0.6 -0.6 0.6 l-1.3 0 c-0.36 0 -0.6 -0.24 -0.6 -0.6 l0 -26.8 c0 -0.32 0.18 -0.54 0.46 -0.58 l0 -0.02 l2.08 0 c0.32 0 0.56 0.12 0.72 0.4 l14.4 24.14 l0 -23.94 c0 -0.36 0.24 -0.6 0.6 -0.6 l1.3 0 z M157.42 12 c0.48 0 0.66 0.32 0.4 0.72 l-10.74 16.44 l0 10.24 c0 0.36 -0.24 0.6 -0.6 0.6 l-1.3 0 c-0.36 0 -0.6 -0.24 -0.6 -0.6 l0 -10.24 l-10.72 -16.44 c-0.26 -0.4 -0.08 -0.72 0.4 -0.72 l1.58 0 c0.32 0 0.54 0.12 0.72 0.4 l9.28 14.26 l9.28 -14.26 c0.18 -0.28 0.4 -0.4 0.72 -0.4 l1.58 0 z M180.47 40.52 c-7.92 0 -14.3 -6.4 -14.3 -14.4 c0 -8.04 6.38 -14.44 14.3 -14.44 c7.88 0 14.26 6.4 14.26 14.44 c0 8 -6.38 14.4 -14.26 14.4 z M180.47 38.22 c6.62 0 11.86 -5.36 11.86 -12.1 c0 -6.78 -5.24 -12.14 -11.86 -12.14 c-6.66 0 -11.9 5.36 -11.9 12.14 c0 6.74 5.24 12.1 11.9 12.1 z M225.92 12 c0.36 0 0.6 0.24 0.6 0.6 l0 16.08 c0 7.88 -4 11.9 -11.08 11.9 c-7.1 0 -11.08 -4.02 -11.08 -11.9 l0 -16.08 c0 -0.36 0.24 -0.6 0.6 -0.6 l1.3 0 c0.36 0 0.6 0.24 0.6 0.6 l0 16.08 c0 6.66 3.44 9.58 8.58 9.58 c5.12 0 8.58 -2.92 8.58 -9.58 l0 -16.08 c0 -0.36 0.24 -0.6 0.6 -0.6 l1.3 0 z M250.67000000000002 28.7 l5.6 10.6 c0.22 0.42 0.02 0.7 -0.44 0.7 l-1.48 0 c-0.32 0 -0.54 -0.14 -0.7 -0.44 l-5.56 -10.58 l-0.58 0 l-8.06 0 l0 10.42 c0 0.36 -0.24 0.6 -0.6 0.6 l-1.3 0 c-0.36 0 -0.6 -0.24 -0.6 -0.6 l0 -26.8 c0 -0.36 0.24 -0.6 0.6 -0.6 l9.96 0 c6.7 0 9.44 3.12 9.44 8.48 c0 4.44 -1.86 7.34 -6.28 8.22 z M239.45000000000002 26.619999999999997 l8.2 0 c3.98 0 6.84 -1.16 6.84 -6.14 s-2.86 -6.12 -6.84 -6.12 l-8.2 0 l0 12.26 z M304.11 37.64 c0.36 0 0.6 0.24 0.6 0.6 l0 1.16 c0 0.36 -0.24 0.6 -0.6 0.6 l-16.9 0 c-0.36 0 -0.6 -0.24 -0.6 -0.6 l0 -26.8 c0 -0.36 0.24 -0.6 0.6 -0.6 l16.86 0 c0.36 0 0.6 0.24 0.6 0.6 l0 1.16 c0 0.36 -0.24 0.6 -0.6 0.6 l-14.96 0 l0 9.62 l13.86 0 c0.36 0 0.6 0.24 0.6 0.6 l0 1.16 c0 0.36 -0.24 0.6 -0.6 0.6 l-13.86 0 l0 11.3 l15 0 z M334.44 12.48 c0.14 -0.36 0.36 -0.48 0.68 -0.48 l1.26 0 c0.44 0 0.64 0.28 0.48 0.68 l-10.32 26.84 c-0.12 0.32 -0.38 0.48 -0.7 0.48 l-1.48 0 c-0.32 0 -0.62 -0.16 -0.74 -0.48 l-10.32 -26.84 c-0.16 -0.4 0.04 -0.68 0.48 -0.68 l1.26 0 c0.32 0 0.54 0.12 0.68 0.48 l9.36 24.58 z M363.65 37.64 c0.36 0 0.6 0.24 0.6 0.6 l0 1.16 c0 0.36 -0.24 0.6 -0.6 0.6 l-16.9 0 c-0.36 0 -0.6 -0.24 -0.6 -0.6 l0 -26.8 c0 -0.36 0.24 -0.6 0.6 -0.6 l16.86 0 c0.36 0 0.6 0.24 0.6 0.6 l0 1.16 c0 0.36 -0.24 0.6 -0.6 0.6 l-14.96 0 l0 9.62 l13.86 0 c0.36 0 0.6 0.24 0.6 0.6 l0 1.16 c0 0.36 -0.24 0.6 -0.6 0.6 l-13.86 0 l0 11.3 l15 0 z M394.23999999999995 12 c0.36 0 0.6 0.24 0.6 0.6 l0 26.8 c0 0.3 -0.18 0.52 -0.44 0.58 l0 0.02 l-2.1 0 c-0.32 0 -0.56 -0.12 -0.72 -0.4 l-14.4 -24.18 l0 23.98 c0 0.36 -0.24 0.6 -0.6 0.6 l-1.3 0 c-0.36 0 -0.6 -0.24 -0.6 -0.6 l0 -26.8 c0 -0.32 0.18 -0.54 0.46 -0.58 l0 -0.02 l2.08 0 c0.32 0 0.56 0.12 0.72 0.4 l14.4 24.14 l0 -23.94 c0 -0.36 0.24 -0.6 0.6 -0.6 l1.3 0 z M425.37 12 c0.36 0 0.6 0.24 0.6 0.6 l0 1.16 c0 0.36 -0.24 0.6 -0.6 0.6 l-8.9 0 l0 25.04 c0 0.36 -0.24 0.6 -0.6 0.6 l-1.3 0 c-0.36 0 -0.6 -0.24 -0.6 -0.6 l0 -25.04 l-8.9 0 c-0.36 0 -0.6 -0.24 -0.6 -0.6 l0 -1.16 c0 -0.36 0.24 -0.6 0.6 -0.6 l20.3 0 z M444.32 24.46 c5.52 1.18 10.26 2.7 10.26 8.52 c0 4.26 -3.06 7.62 -10.14 7.62 c-5.84 0 -9.66 -2.24 -10.04 -6.38 c-0.04 -0.4 0.2 -0.74 0.56 -0.74 l1.36 0 c0.36 0 0.58 0.3 0.6 0.62 c0.26 2.54 3.06 4.2 7.52 4.2 c4.96 0 7.66 -1.74 7.66 -5.36 c0 -4.3 -3.32 -4.96 -7.78 -6.06 c-5.12 -1.26 -9.18 -2.84 -9.18 -8.16 c0 -4.22 3.02 -7.06 9 -7.06 c5.64 0 9.16 2.18 9.58 6.3 c0.04 0.4 -0.2 0.56 -0.56 0.56 l-1.26 0 c-0.36 0 -0.58 -0.12 -0.6 -0.44 c-0.26 -2.44 -2.92 -4.18 -7.18 -4.18 c-3.92 0 -6.6 1.58 -6.6 4.82 c0 3.42 2.7 4.84 6.8 5.74 z">
      </path>
    </g>
  </g>
</svg>